<svg width="179" height="36" viewBox="0 0 179 36" fill="none" xmlns="http://www.w3.org/2000/svg">
<line x1="112.875" y1="17.5" x2="178.875" y2="17.5" stroke="#0063A8"/>
<line x1="0.125" y1="17.5" x2="66.125" y2="17.5" stroke="#0063A8"/>
<circle cx="89" cy="18" r="16" stroke="#0063A8" stroke-width="2.76396" stroke-dasharray="0.98 8.39"/>
<mask id="path-4-inside-1_4492_1161" fill="white">
<path fill-rule="evenodd" clip-rule="evenodd" d="M88.3889 6.81253L81.4831 19.9673C81.1336 20.6332 81.6165 21.4321 82.3685 21.4321H86.0514L85.8715 27.9453C85.813 30.0635 88.6566 30.8063 89.6415 28.9302L96.5473 15.7754C96.8969 15.1095 96.414 14.3106 95.6619 14.3106H91.979L92.159 7.79739C92.2175 5.67922 89.3738 4.93637 88.3889 6.81253Z"/>
</mask>
<path fill-rule="evenodd" clip-rule="evenodd" d="M88.3889 6.81253L81.4831 19.9673C81.1336 20.6332 81.6165 21.4321 82.3685 21.4321H86.0514L85.8715 27.9453C85.813 30.0635 88.6566 30.8063 89.6415 28.9302L96.5473 15.7754C96.8969 15.1095 96.414 14.3106 95.6619 14.3106H91.979L92.159 7.79739C92.2175 5.67922 89.3738 4.93637 88.3889 6.81253Z" fill="#FFDF4E"/>
<path d="M81.4831 19.9673L82.712 20.6124H82.712L81.4831 19.9673ZM88.3889 6.81253L89.6177 7.45762V7.45762L88.3889 6.81253ZM86.0514 21.4321L87.4388 21.4705L87.4782 20.0443H86.0514V21.4321ZM85.8715 27.9453L84.4842 27.907L85.8715 27.9453ZM89.6415 28.9302L88.4127 28.2851L89.6415 28.9302ZM96.5473 15.7754L97.7761 16.4204L96.5473 15.7754ZM91.979 14.3106L90.5917 14.2722L90.5523 15.6984H91.979V14.3106ZM92.159 7.79739L93.5463 7.83572L92.159 7.79739ZM82.712 20.6124L89.6177 7.45762L87.1601 6.16745L80.2543 19.3223L82.712 20.6124ZM82.3685 20.0443C82.6602 20.0443 82.8475 20.3542 82.712 20.6124L80.2543 19.3223C79.4196 20.9123 80.5728 22.82 82.3685 22.82V20.0443ZM86.0514 20.0443H82.3685V22.82H86.0514V20.0443ZM87.2588 27.9836L87.4388 21.4705L84.6641 21.3938L84.4842 27.907L87.2588 27.9836ZM88.4127 28.2851C88.1113 28.8593 87.2409 28.632 87.2588 27.9836L84.4842 27.907C84.385 31.495 89.202 32.7534 90.8704 29.5753L88.4127 28.2851ZM95.3185 15.1303L88.4127 28.2851L90.8704 29.5753L97.7761 16.4204L95.3185 15.1303ZM95.6619 15.6984C95.3702 15.6984 95.1829 15.3885 95.3185 15.1303L97.7761 16.4204C98.6108 14.8304 97.4577 12.9227 95.6619 12.9227V15.6984ZM91.979 15.6984H95.6619V12.9227H91.979V15.6984ZM90.7716 7.75906L90.5917 14.2722L93.3663 14.3489L93.5463 7.83572L90.7716 7.75906ZM89.6177 7.45762C89.9192 6.88339 90.7896 7.11074 90.7716 7.75906L93.5463 7.83572C93.6454 4.24771 88.8285 2.98934 87.1601 6.16745L89.6177 7.45762Z" fill="#0063A8" mask="url(#path-4-inside-1_4492_1161)"/>
</svg>
